HIERARCHY
ROOT joint_Root
{
	OFFSET 0.0 0.0 0.0
	CHANNELS 6 Xposition Yposition Zposition Zrotation Xrotation Yrotation 
	JOINT Hips
	{
		OFFSET 4.5925 91.4895 -427.239
		CHANNELS 6 Xposition Yposition Zposition Zrotation Xrotation Yrotation 
		JOINT Spine
		{
			OFFSET 15.7357 0.0 0.0
			CHANNELS 6 Xposition Yposition Zposition Zrotation Xrotation Yrotation 
			JOINT Chest
			{
				OFFSET 8.98455 -0.406207 0.0
				CHANNELS 6 Xposition Yposition Zposition Zrotation Xrotation Yrotation 
				JOINT Neck
				{
					OFFSET 16.3773 0.0 0.0
					CHANNELS 6 Xposition Yposition Zposition Zrotation Xrotation Yrotation 
					JOINT Head
					{
						OFFSET 6.45672 0.0 0.0
						CHANNELS 6 Xposition Yposition Zposition Zrotation Xrotation Yrotation 
						End Site
						{
							OFFSET 0.0 0.0 0.0
						}
					}
				}
				JOINT Shoulder_L
				{
					OFFSET 12.9942 -0.242716 4.98039
					CHANNELS 6 Xposition Yposition Zposition Zrotation Xrotation Yrotation 
					JOINT UpperArm_L
					{
						OFFSET 5.34809 0.0 0.0
						CHANNELS 6 Xposition Yposition Zposition Zrotation Xrotation Yrotation 
						JOINT LowerArm_L
						{
							OFFSET 24.3286 1.87007e-05 0.0
							CHANNELS 6 Xposition Yposition Zposition Zrotation Xrotation Yrotation 
							JOINT Hand_L
							{
								OFFSET 22.2916 0.0 0.0
								CHANNELS 6 Xposition Yposition Zposition Zrotation Xrotation Yrotation 
								End Site
								{
									OFFSET 0.0 0.0 0.0
								}
							}
						}
					}
				}
				JOINT Shoulder_R
				{
					OFFSET 12.9945 -0.242716 -4.98039
					CHANNELS 6 Xposition Yposition Zposition Zrotation Xrotation Yrotation 
					JOINT UpperArm_R
					{
						OFFSET -5.34813 0.0 0.0
						CHANNELS 6 Xposition Yposition Zposition Zrotation Xrotation Yrotation 
						JOINT LowerArm_R
						{
							OFFSET -24.3289 0.000322201 0.0
							CHANNELS 6 Xposition Yposition Zposition Zrotation Xrotation Yrotation 
							JOINT Hand_R
							{
								OFFSET -22.2915 -0.000108084 0.0
								CHANNELS 6 Xposition Yposition Zposition Zrotation Xrotation Yrotation 
								End Site
								{
									OFFSET 0.0 0.0 0.0
								}
							}
						}
					}
				}
			}
		}
		JOINT UpperLeg_L
		{
			OFFSET -2.19248 -6.46944 0.0
			CHANNELS 6 Xposition Yposition Zposition Zrotation Xrotation Yrotation 
			JOINT LowerLeg_L
			{
				OFFSET 39.0811 0.0 -1.23785e-05
				CHANNELS 6 Xposition Yposition Zposition Zrotation Xrotation Yrotation 
				JOINT Foot_L
				{
					OFFSET 40.9854 0.0 -1.26872e-05
					CHANNELS 6 Xposition Yposition Zposition Zrotation Xrotation Yrotation 
					JOINT Toes_L
					{
						OFFSET 11.7543 0.0 0.0
						CHANNELS 6 Xposition Yposition Zposition Zrotation Xrotation Yrotation 
						End Site
						{
							OFFSET 0.0 0.0 0.0
						}
					}
				}
			}
		}
		JOINT UpperLeg_R
		{
			OFFSET -2.19251 6.46944 0.0
			CHANNELS 6 Xposition Yposition Zposition Zrotation Xrotation Yrotation 
			JOINT LowerLeg_R
			{
				OFFSET -39.0811 -0.00228153 -0.0401928
				CHANNELS 6 Xposition Yposition Zposition Zrotation Xrotation Yrotation 
				JOINT Foot_R
				{
					OFFSET -40.9854 0.0 0.0
					CHANNELS 6 Xposition Yposition Zposition Zrotation Xrotation Yrotation 
					JOINT Toes_R
					{
						OFFSET -11.7543 0.0 0.0
						CHANNELS 6 Xposition Yposition Zposition Zrotation Xrotation Yrotation 
						End Site
						{
							OFFSET 0.0 0.0 0.0
						}
					}
				}
			}
		}
	}
}
MOTION
Frames:	8
Frame Time:	0.0333333
0.000000 0.000000 0.000000 0.000000 0.000000 -0.000000 -1.868830 82.942200 -4.476310 88.644500 -2.370440 7.277960 15.735700 0.000005 -0.000001 88.558500 80.593000 -88.812500 8.984550 -0.406207 -0.000000 11.041300 -0.476969 -0.461593 16.377300 -0.000001 -0.000001 -1.614080 -1.971700 1.191900 6.456720 -0.000001 -0.000000 -10.664900 -1.902760 1.785760 12.994200 -0.242716 4.980390 -90.653400 1.786530 -69.906900 5.348090 -0.000007 -0.000001 -64.078600 13.833800 -15.552500 24.328600 0.000019 0.000005 2.018630 6.420540 -17.513600 22.291600 -0.000001 0.000005 12.990500 5.194880 2.860600 12.994500 -0.242716 -4.980390 88.486700 7.575550 -78.666300 -5.348130 -0.000001 -0.000004 -65.709300 7.587600 -16.214200 -24.328900 0.000322 -0.000009 -2.276430 -20.455200 -6.471460 -22.291500 -0.000108 -0.000004 14.491400 5.409160 -3.171970 -2.192480 -6.469440 -0.000000 -173.918000 -10.992700 -21.779800 39.081100 -0.000007 -0.000012 -0.376001 0.208652 60.974000 40.985400 -0.000006 -0.000013 1.571330 6.700350 -81.819800 11.754300 -0.000000 0.000003 -0.000173 -0.001641 -16.639700 -2.192510 6.469440 -0.000001 179.998000 13.492000 158.627000 -39.081100 -0.002282 -0.040193 0.079605 -0.042744 60.777000 -40.985400 0.000008 0.000006 8.529150 5.120750 -82.559400 -11.754300 -0.000006 -0.000006 -0.048859 -0.069707 -17.084400
0.000000 0.000000 0.000000 0.000000 0.000000 -0.000000 -2.051200 84.447100 -2.944910 88.640000 -2.221500 7.925120 15.735700 0.000005 -0.000001 88.055900 81.608100 -88.496000 8.984550 -0.406207 -0.000000 9.006400 -0.571147 -0.834399 16.377300 -0.000001 -0.000001 -1.053860 -1.539030 1.118990 6.456720 -0.000001 -0.000000 -9.808140 -1.502180 1.629370 12.994200 -0.242716 4.980390 -90.338600 0.878866 -68.912700 5.348090 -0.000007 -0.000001 -58.393100 -5.379620 -12.604400 24.328600 0.000019 0.000005 2.530350 10.546400 -13.580600 22.291600 -0.000001 0.000005 10.993600 5.125580 4.474310 12.994500 -0.242716 -4.980390 88.553800 6.278710 -76.997800 -5.348130 -0.000001 -0.000004 -61.617500 -11.142200 -16.241500 -24.328900 0.000322 -0.000009 -0.003192 -15.525000 -0.000087 -22.291500 -0.000108 -0.000004 13.303900 5.337090 -1.021590 -2.192480 -6.469440 -0.000000 -173.516000 -10.816100 -17.524300 39.081100 -0.000007 -0.000012 -0.352402 0.234568 56.352200 40.985400 -0.000006 -0.000013 1.247920 6.966220 -80.759900 11.754300 -0.000000 0.000003 -0.000154 -0.001483 -16.633900 -2.192510 6.469440 -0.000001 179.604000 13.586800 162.847000 -39.081100 -0.002282 -0.040193 0.070337 -0.044816 56.267600 -40.985400 0.000008 0.000006 8.217450 5.447540 -81.287600 -11.754300 -0.000006 -0.000006 -0.184199 -0.234215 -17.267700
0.000000 0.000000 0.000000 0.000000 0.000000 -0.000000 -2.132640 86.653900 -0.942613 89.084200 -1.644350 9.465240 15.735700 0.000005 -0.000001 86.234200 82.722800 -87.048500 8.984550 -0.406207 -0.000000 6.751340 -0.945607 -1.570910 16.377300 -0.000001 -0.000001 0.811135 -1.450350 1.013920 6.456720 -0.000001 -0.000000 -8.763400 -1.568230 1.879270 12.994200 -0.242716 4.980390 -89.442300 -1.376340 -67.951100 5.348090 -0.000007 -0.000001 -50.320300 -27.947700 -12.483600 24.328600 0.000019 0.000005 2.072630 10.277500 -11.464500 22.291600 -0.000001 0.000005 17.119100 4.933230 8.645950 12.994500 -0.242716 -4.980390 88.925800 4.269430 -75.858300 -5.348130 -0.000001 -0.000004 -53.508200 -27.251300 -17.823600 -24.328900 0.000322 -0.000009 -0.000379 -16.856700 -0.000094 -22.291500 -0.000108 -0.000004 19.775500 5.305060 -0.069737 -2.192480 -6.469440 -0.000000 -173.672000 -9.719440 -10.561400 39.081100 -0.000007 -0.000012 -0.319307 0.281611 48.590200 40.985400 -0.000006 -0.000013 0.640263 6.792630 -78.445600 11.754300 -0.000000 0.000003 -0.000094 -0.000980 -16.615200 -2.192510 6.469440 -0.000001 178.434000 13.395300 169.678000 -39.081100 -0.002282 -0.040193 0.057335 -0.046950 49.038700 -40.985400 0.000008 0.000006 7.548970 5.529880 -78.809200 -11.754300 -0.000006 -0.000006 -0.206360 -0.266464 -17.688000
0.000000 0.000000 0.000000 0.000000 0.000000 -0.000000 -2.196210 88.672900 0.662471 89.477100 -1.515190 8.656380 15.735700 0.000005 -0.000001 86.265100 84.629300 -87.365800 8.984550 -0.406207 -0.000000 2.947320 -0.652734 -2.182420 16.377300 -0.000001 -0.000001 3.053070 -1.574820 0.902466 6.456720 -0.000001 -0.000000 -7.387370 -2.053240 2.124930 12.994200 -0.242716 4.980390 -88.315300 -3.923410 -66.745500 5.348090 -0.000007 -0.000001 -42.664500 -45.567300 -18.835800 24.328600 0.000019 0.000005 0.768254 3.589070 -12.127100 22.291600 -0.000001 0.000005 19.980500 4.888890 9.598630 12.994500 -0.242716 -4.980390 89.404600 2.150880 -74.510600 -5.348130 -0.000001 -0.000004 -43.944000 -39.818300 -23.236700 -24.328900 0.000322 -0.000009 -0.002368 -21.796800 -0.000122 -22.291500 -0.000108 -0.000004 19.319300 5.313700 -0.310309 -2.192480 -6.469440 -0.000000 -174.136000 -9.523950 -6.036880 39.081100 -0.000007 -0.000012 -0.269936 0.318480 40.284300 40.985400 -0.000006 -0.000013 0.102747 6.754790 -75.468700 11.754300 -0.000000 0.000003 -0.000044 -0.000511 -16.597400 -2.192510 6.469440 -0.000001 178.032000 12.986500 173.689000 -39.081100 -0.002282 -0.040193 0.043208 -0.045002 41.584800 -40.985400 0.000008 0.000006 6.882540 5.773870 -75.518000 -11.754300 -0.000006 -0.000006 -0.252006 -0.327535 -18.303200
0.000000 0.000000 0.000000 0.000000 0.000000 -0.000000 -2.092080 89.995900 1.681820 89.485900 -1.344770 6.625130 15.735700 0.000005 -0.000001 86.150500 86.833000 -87.214900 8.984550 -0.406207 -0.000000 -1.448670 -0.339583 -2.132480 16.377300 -0.000001 -0.000001 5.480550 -1.616970 0.513926 6.456720 -0.000001 -0.000000 -5.962920 -2.614190 2.384870 12.994200 -0.242716 4.980390 -87.028800 -6.602100 -65.705800 5.348090 -0.000007 -0.000001 -35.642600 -53.116600 -28.916300 24.328600 0.000019 0.000005 -1.179270 -4.351190 -15.128800 22.291600 -0.000001 0.000005 16.944600 5.026180 6.688460 12.994500 -0.242716 -4.980390 90.400000 -1.406350 -74.118600 -5.348130 -0.000001 -0.000004 -36.797500 -49.679600 -31.775200 -24.328900 0.000322 -0.000009 -0.415547 -25.826600 -0.941894 -22.291500 -0.000108 -0.000004 14.074300 5.312030 -0.275637 -2.192480 -6.469440 -0.000000 -174.583000 -9.420920 -4.265360 39.081100 -0.000007 -0.000012 -0.211466 0.313559 33.996300 40.985400 -0.000006 -0.000013 -0.212621 6.630080 -73.014000 11.754300 -0.000000 0.000003 -0.000023 -0.000286 -16.588700 -2.192510 6.469440 -0.000001 177.947000 14.152000 175.265000 -39.081100 -0.002282 -0.040193 0.031864 -0.039696 35.748800 -40.985400 0.000008 0.000006 6.646180 7.226510 -72.987500 -11.754300 -0.000006 -0.000006 -0.270368 -0.352623 -18.652100
0.000000 0.000000 0.000000 0.000000 0.000000 -0.000000 -1.954890 90.731900 2.486540 89.431700 -1.248680 5.405240 15.735700 0.000005 -0.000001 86.637300 88.585400 -87.588000 8.984550 -0.406207 -0.000000 -4.941400 -0.060430 -1.905460 16.377300 -0.000001 -0.000001 7.924330 -1.588740 0.513066 6.456720 -0.000001 -0.000000 -5.128920 -2.944010 2.501210 12.994200 -0.242716 4.980390 -85.089900 -10.754900 -65.279700 5.348090 -0.000007 -0.000001 -25.515700 -54.038900 -33.601600 24.328600 0.000019 0.000005 -2.684570 -6.203140 -23.473000 22.291600 -0.000001 0.000005 14.973100 5.222470 2.170570 12.994500 -0.242716 -4.980390 91.825300 -6.538780 -74.365300 -5.348130 -0.000001 -0.000004 -29.959200 -53.811600 -38.156800 -24.328900 0.000322 -0.000009 -5.899350 -28.123100 -12.372500 -22.291500 -0.000108 -0.000004 13.355200 5.391750 -2.628170 -2.192480 -6.469440 -0.000000 -174.770000 -9.481780 -2.840960 39.081100 -0.000007 -0.000012 -0.185927 0.324427 29.816900 40.985400 -0.000006 -0.000013 -0.349417 6.662620 -71.492900 11.754300 -0.000000 0.000003 -0.000024 -0.000302 -16.589400 -2.192510 6.469440 -0.000001 177.613000 16.052800 176.723000 -39.081100 -0.002282 -0.040193 0.023255 -0.032291 31.716600 -40.985400 0.000008 0.000006 6.719730 9.286610 -71.667100 -11.754300 -0.000006 -0.000006 -0.285930 -0.370595 -18.672900
0.000000 0.000000 0.000000 0.000000 0.000000 -0.000000 -1.841070 91.073800 2.982260 89.406500 -0.871920 5.143170 15.735700 0.000005 -0.000001 83.876900 89.394900 -84.738300 8.984550 -0.406207 -0.000000 -6.562230 -0.021233 -1.726670 16.377300 -0.000001 -0.000001 8.967030 -2.105420 0.924888 6.456720 -0.000001 -0.000000 -5.434310 -3.320990 2.546240 12.994200 -0.242716 4.980390 -83.328700 -13.942800 -64.108800 5.348090 -0.000007 -0.000001 -14.068700 -55.790200 -36.150300 24.328600 0.000019 0.000005 -1.047710 -1.429090 -36.791300 22.291600 -0.000001 0.000005 19.876700 5.304320 -0.031891 12.994500 -0.242716 -4.980390 93.101500 -10.515000 -73.466600 -5.348130 -0.000001 -0.000004 -22.144400 -56.935200 -42.988200 -24.328900 0.000322 -0.000009 -11.202600 -20.269900 -29.818100 -22.291500 -0.000108 -0.000004 18.901400 5.505040 -6.654110 -2.192480 -6.469440 -0.000000 -174.810000 -9.396050 -1.672870 39.081100 -0.000007 -0.000012 -0.167923 0.321423 27.584500 40.985400 -0.000006 -0.000013 -0.339334 6.927470 -70.717500 11.754300 -0.000000 0.000003 -0.000022 -0.000275 -16.588300 -2.192510 6.469440 -0.000001 177.129000 17.733900 178.222000 -39.081100 -0.002282 -0.040193 0.016757 -0.023989 29.284100 -40.985400 0.000008 0.000006 6.696710 10.821800 -71.200100 -11.754300 -0.000006 -0.000006 -0.102631 -0.161024 -18.583700
0.000000 0.000000 0.000000 0.000000 0.000000 -0.000000 -1.768140 91.204500 3.158340 89.486900 -0.244646 5.320540 15.735700 0.000005 -0.000001 64.548600 89.493800 -65.342100 8.984550 -0.406207 -0.000000 -6.853720 -0.333101 -1.609430 16.377300 -0.000001 -0.000001 9.327130 -2.677390 1.458230 6.456720 -0.000001 -0.000000 -6.351900 -3.597710 2.375790 12.994200 -0.242716 4.980390 -81.946900 -15.438400 -62.011200 5.348090 -0.000007 -0.000001 -10.497800 -62.822300 -44.486400 24.328600 0.000019 0.000005 8.126660 6.364970 -52.041600 22.291600 -0.000001 0.000005 25.311700 5.337350 -0.951318 12.994500 -0.242716 -4.980390 94.340600 -12.919600 -71.251400 -5.348130 -0.000001 -0.000004 -21.564600 -62.562300 -55.426900 -24.328900 0.000322 -0.000009 -6.978630 -7.082930 -44.880500 -22.291500 -0.000108 -0.000004 24.744900 5.572110 -9.643340 -2.192480 -6.469440 -0.000000 -174.809000 -9.540780 -0.963869 39.081100 -0.000007 -0.000012 -0.157393 0.313503 26.658900 40.985400 -0.000006 -0.000013 -0.169744 7.648450 -70.349700 11.754300 -0.000000 0.000003 -0.000019 -0.000242 -16.587000 -2.192510 6.469440 -0.000001 176.706000 18.756400 179.367000 -39.081100 -0.002282 -0.040193 0.015374 -0.022665 28.033300 -40.985400 0.000008 0.000006 6.880090 11.301600 -71.289700 -11.754300 -0.000006 -0.000006 -0.003509 -0.046229 -18.453400
